<?xml version="1.0" encoding="UTF-8" standalone="no"?>
<!-- Created with Inkscape (http://www.inkscape.org/) -->

<svg
   width="16"
   height="16"
   viewBox="0 0 4.2333332 4.2333335"
   version="1.1"
   id="svg8"
   inkscape:version="1.1.1 (3bf5ae0d25, 2021-09-20)"
   sodipodi:docname="stop.svg"
   inkscape:export-filename="C:\Users\ZXYNI\AppData\Roaming\Autodesk\Autodesk Fusion 360\API\AddIns\AnyMacro\resources\stop\32x32.png"
   inkscape:export-xdpi="192.00002"
   inkscape:export-ydpi="192.00002"
   xmlns:inkscape="http://www.inkscape.org/namespaces/inkscape"
   xmlns:sodipodi="http://sodipodi.sourceforge.net/DTD/sodipodi-0.dtd"
   xmlns="http://www.w3.org/2000/svg"
   xmlns:svg="http://www.w3.org/2000/svg"
   xmlns:rdf="http://www.w3.org/1999/02/22-rdf-syntax-ns#"
   xmlns:cc="http://creativecommons.org/ns#"
   xmlns:dc="http://purl.org/dc/elements/1.1/">
  <defs
     id="defs2" />
  <sodipodi:namedview
     id="base"
     pagecolor="#ffffff"
     bordercolor="#666666"
     borderopacity="1.0"
     inkscape:pageopacity="0.0"
     inkscape:pageshadow="2"
     inkscape:zoom="16"
     inkscape:cx="13.3125"
     inkscape:cy="14.71875"
     inkscape:document-units="mm"
     inkscape:current-layer="layer1"
     showgrid="true"
     units="px"
     inkscape:window-width="1853"
     inkscape:window-height="1057"
     inkscape:window-x="-8"
     inkscape:window-y="-8"
     inkscape:window-maximized="1"
     inkscape:pagecheckerboard="0">
    <inkscape:grid
       empspacing="2"
       spacingx="0.13229167"
       spacingy="0.13229167"
       type="xygrid"
       id="grid1614" />
  </sodipodi:namedview>
  <metadata
     id="metadata5">
    <rdf:RDF>
      <cc:Work
         rdf:about="">
        <dc:format>image/svg+xml</dc:format>
        <dc:type
           rdf:resource="http://purl.org/dc/dcmitype/StillImage" />
        <dc:title />
      </cc:Work>
    </rdf:RDF>
  </metadata>
  <g
     inkscape:label="Layer 1"
     inkscape:groupmode="layer"
     id="layer1"
     transform="translate(0,-292.76665)">
    <g
       id="g2153"
       transform="translate(-4.8500316,5.4090183)">
      <rect
         ry="0.58901399"
         y="292.47412"
         x="5.4612589"
         height="2.8073785"
         width="2.8928781"
         id="rect5855"
         style="fill:#f2f2f2;stroke:none;stroke-width:0.185208;stroke-miterlimit:4;stroke-dasharray:none" />
      <text
         xml:space="preserve"
         style="font-style:normal;font-weight:normal;font-size:14.958px;line-height:1.25;font-family:sans-serif;letter-spacing:0px;word-spacing:0px;fill:#4d4d4d;fill-opacity:1;stroke:none;stroke-width:0.264583"
         x="6.2410541"
         y="294.98865"
         id="text5859"><tspan
           sodipodi:role="line"
           id="tspan5857"
           x="6.2410541"
           y="294.98865"
           style="font-weight:bold;font-size:2.99161px;fill:#4d4d4d;stroke-width:0.264583">!</tspan></text>
      <path
         inkscape:connector-curvature="0"
         style="fill:#e6e6e6;stroke:none;stroke-width:0.264583px;stroke-linecap:butt;stroke-linejoin:miter;stroke-opacity:1"
         d="m 5.7948063,291.95845 c -0.2293417,0.003 -0.4378349,0.0929 -0.5879592,0.24298 -0.024292,0.0243 -0.018334,0.068 -0.039518,0.0951 l 1.7366425,1.62767 1.7152812,-1.74568 c -0.126121,-0.10947 -0.2863022,-0.17165 -0.4619294,-0.19068 z"
         id="path5863" />
      <path
         inkscape:connector-curvature="0"
         id="path5865"
         d="m 8.7045338,295.66876 c 0.127567,-0.1462 0.2247104,-0.32327 0.2247104,-0.5313 v -2.3182 c 0,-0.23215 -0.095705,-0.44188 -0.2507639,-0.59334 -0.030921,-0.0301 -0.085681,-0.0235 -0.1210397,-0.0489 l -1.6782732,1.7445 z"
         style="fill:#cccccc;stroke:none;stroke-width:0.264583px;stroke-linecap:butt;stroke-linejoin:miter;stroke-opacity:1" />
      <path
         inkscape:connector-curvature="0"
         style="fill:#999999;stroke:none;stroke-width:0.264583px;stroke-linecap:butt;stroke-linejoin:miter;stroke-opacity:1"
         d="m 5.1292291,295.70813 c 0.00207,0.002 0.0012,0.006 0.00328,0.008 0.1307743,0.12671 0.3189673,0.18034 0.5122181,0.20499 l 2.4490263,0.0308 c 0.2286318,-0.007 0.4378859,-0.0901 0.5882037,-0.2357 0.015343,-0.0149 0.010451,-0.0423 0.024601,-0.0583 l -1.8367706,-1.73368 z"
         id="path5867" />
      <path
         inkscape:connector-curvature="0"
         style="fill:#cccccc;stroke:none;stroke-width:0.264583px;stroke-linecap:butt;stroke-linejoin:miter;stroke-opacity:1"
         d="m 5.1604419,292.19208 c -7.991e-4,7.9e-4 -0.00241,2.8e-4 -0.00321,0.001 -0.1274707,0.12865 -0.1810773,0.31391 -0.2061329,0.50394 l -0.029371,2.48259 c 0.00799,0.22335 0.089786,0.42856 0.235504,0.57564 0.011584,0.0117 0.03315,0.008 0.045392,0.0189 l 1.6517328,-1.84225 z"
         id="path5861" />
      <rect
         style="fill:#f2f2f2;stroke:none;stroke-width:0.185208;stroke-miterlimit:4;stroke-dasharray:none"
         id="rect5871"
         width="2.8928781"
         height="2.8073785"
         x="5.4612589"
         y="292.47412"
         ry="0.58901399" />
      <path
         id="path5853"
         d="m 5.7794579,291.95471 h 2.2728727 c 0.46759,0 0.8440254,0.37643 0.8440254,0.84401 v 2.33472 c 0,0.46757 -0.3764354,0.84401 -0.8440254,0.84401 H 5.7794579 c -0.46759,0 -0.8440253,-0.37644 -0.8440253,-0.84401 v -2.33472 c 0,-0.46758 0.3764353,-0.84401 0.8440253,-0.84401 z"
         style="fill:none;fill-opacity:0.584541;stroke:#000000;stroke-width:0.15875;stroke-miterlimit:4;stroke-dasharray:none"
         inkscape:connector-curvature="0" />
    </g>
    <rect
       style="opacity:1;fill:#000000;fill-opacity:1;stroke:none;stroke-width:0.370417;stroke-linecap:butt;stroke-linejoin:miter;stroke-miterlimit:4;stroke-dasharray:0.740833, 0.370417;stroke-dashoffset:0;stroke-opacity:1;paint-order:normal"
       id="rect832"
       width="1.5875006"
       height="1.5875006"
       x="1.3229163"
       y="298.58749" />
    <text
       xml:space="preserve"
       style="font-style:normal;font-weight:normal;font-size:10.5833px;line-height:1.25;font-family:sans-serif;letter-spacing:0px;word-spacing:0px;fill:#000000;fill-opacity:1;stroke:none;stroke-width:0.264583"
       x="8.2020836"
       y="292.50208"
       id="text1738" />
    <g
       id="g2153-9-0-4"
       transform="matrix(1.0279451,0,0,1.0128987,-4.9943596,-2.8741242)">
      <rect
         ry="0.58901399"
         y="292.47412"
         x="5.4612589"
         height="2.8073785"
         width="2.8928781"
         id="rect5855-5-6-3"
         style="fill:#f2f2f2;stroke:none;stroke-width:0.185208;stroke-miterlimit:4;stroke-dasharray:none" />
      <text
         xml:space="preserve"
         style="font-style:normal;font-weight:normal;font-size:14.958px;line-height:1.25;font-family:sans-serif;letter-spacing:0px;word-spacing:0px;fill:#4d4d4d;fill-opacity:1;stroke:none;stroke-width:0.264583"
         x="6.2410541"
         y="294.98865"
         id="text5859-6-5-1"><tspan
           sodipodi:role="line"
           id="tspan5857-1-0-4"
           x="6.2410541"
           y="294.98865"
           style="font-weight:bold;font-size:2.99161px;fill:#4d4d4d;stroke-width:0.264583">!</tspan></text>
      <path
         inkscape:connector-curvature="0"
         style="fill:#e6e6e6;stroke:none;stroke-width:0.264583px;stroke-linecap:butt;stroke-linejoin:miter;stroke-opacity:1"
         d="m 5.7948063,291.95845 c -0.2293417,0.003 -0.4378349,0.0929 -0.5879592,0.24298 -0.024292,0.0243 -0.018334,0.068 -0.039518,0.0951 l 1.7366425,1.62767 1.7152812,-1.74568 c -0.126121,-0.10947 -0.2863022,-0.17165 -0.4619294,-0.19068 z"
         id="path5863-9-1-3" />
      <path
         inkscape:connector-curvature="0"
         id="path5865-0-8-8"
         d="m 8.7045338,295.66876 c 0.127567,-0.1462 0.2247104,-0.32327 0.2247104,-0.5313 v -2.3182 c 0,-0.23215 -0.095705,-0.44188 -0.2507639,-0.59334 -0.030921,-0.0301 -0.085681,-0.0235 -0.1210397,-0.0489 l -1.6782732,1.7445 z"
         style="fill:#cccccc;stroke:none;stroke-width:0.264583px;stroke-linecap:butt;stroke-linejoin:miter;stroke-opacity:1" />
      <path
         inkscape:connector-curvature="0"
         style="fill:#999999;stroke:none;stroke-width:0.264583px;stroke-linecap:butt;stroke-linejoin:miter;stroke-opacity:1"
         d="m 5.1292291,295.70813 c 0.00207,0.002 0.0012,0.006 0.00328,0.008 0.1307743,0.12671 0.3189673,0.18034 0.5122181,0.20499 l 2.4490263,0.0308 c 0.2286318,-0.007 0.4378859,-0.0901 0.5882037,-0.2357 0.015343,-0.0149 0.010451,-0.0423 0.024601,-0.0583 l -1.8367706,-1.73368 z"
         id="path5867-8-6-4" />
      <path
         inkscape:connector-curvature="0"
         style="fill:#cccccc;stroke:none;stroke-width:0.264583px;stroke-linecap:butt;stroke-linejoin:miter;stroke-opacity:1"
         d="m 5.1604419,292.19208 c -7.991e-4,7.9e-4 -0.00241,2.8e-4 -0.00321,0.001 -0.1274707,0.12865 -0.1810773,0.31391 -0.2061329,0.50394 l -0.029371,2.48259 c 0.00799,0.22335 0.089786,0.42856 0.235504,0.57564 0.011584,0.0117 0.03315,0.008 0.045392,0.0189 l 1.6517328,-1.84225 z"
         id="path5861-6-3-5" />
      <rect
         style="fill:#f2f2f2;stroke:none;stroke-width:0.185208;stroke-miterlimit:4;stroke-dasharray:none"
         id="rect5871-6-1-1"
         width="2.8928781"
         height="2.8073785"
         x="5.4612589"
         y="292.47412"
         ry="0.58901399" />
      <path
         id="path5853-6-6-8"
         d="m 5.7794579,291.95471 h 2.2728727 c 0.46759,0 0.8440254,0.37643 0.8440254,0.84401 v 2.33472 c 0,0.46757 -0.3764354,0.84401 -0.8440254,0.84401 H 5.7794579 c -0.46759,0 -0.8440253,-0.37644 -0.8440253,-0.84401 v -2.33472 c 0,-0.46758 0.3764353,-0.84401 0.8440253,-0.84401 z"
         style="fill:none;fill-opacity:0.584541;stroke:#000000;stroke-width:0.15875;stroke-miterlimit:4;stroke-dasharray:none"
         inkscape:connector-curvature="0" />
    </g>
    <rect
       style="fill:#ff0000;fill-opacity:1;stroke:none;stroke-width:0.370407;stroke-linecap:butt;stroke-linejoin:miter;stroke-miterlimit:4;stroke-dasharray:0.740813, 0.370407;stroke-dashoffset:0;stroke-opacity:1;paint-order:normal"
       id="rect832-9"
       width="1.5874569"
       height="1.5874569"
       x="1.3229489"
       y="294.08957" />
    <g
       id="g2153-9-0-4-0"
       transform="matrix(1.0279451,0,0,1.0128987,-0.09957853,-2.8740852)">
      <rect
         ry="0.58901399"
         y="292.47412"
         x="5.4612589"
         height="2.8073785"
         width="2.8928781"
         id="rect5855-5-6-3-1"
         style="fill:#f2f2f2;stroke:none;stroke-width:0.185208;stroke-miterlimit:4;stroke-dasharray:none" />
      <text
         xml:space="preserve"
         style="font-style:normal;font-weight:normal;font-size:14.958px;line-height:1.25;font-family:sans-serif;letter-spacing:0px;word-spacing:0px;fill:#4d4d4d;fill-opacity:1;stroke:none;stroke-width:0.264583"
         x="6.2410541"
         y="294.98865"
         id="text5859-6-5-1-6"><tspan
           sodipodi:role="line"
           id="tspan5857-1-0-4-2"
           x="6.2410541"
           y="294.98865"
           style="font-weight:bold;font-size:2.99161px;fill:#4d4d4d;stroke-width:0.264583">!</tspan></text>
      <path
         inkscape:connector-curvature="0"
         style="fill:#e6e6e6;stroke:none;stroke-width:0.264583px;stroke-linecap:butt;stroke-linejoin:miter;stroke-opacity:1"
         d="m 5.7948063,291.95845 c -0.2293417,0.003 -0.4378349,0.0929 -0.5879592,0.24298 -0.024292,0.0243 -0.018334,0.068 -0.039518,0.0951 l 1.7366425,1.62767 1.7152812,-1.74568 c -0.126121,-0.10947 -0.2863022,-0.17165 -0.4619294,-0.19068 z"
         id="path5863-9-1-3-9" />
      <path
         inkscape:connector-curvature="0"
         id="path5865-0-8-8-5"
         d="m 8.7045338,295.66876 c 0.127567,-0.1462 0.2247104,-0.32327 0.2247104,-0.5313 v -2.3182 c 0,-0.23215 -0.095705,-0.44188 -0.2507639,-0.59334 -0.030921,-0.0301 -0.085681,-0.0235 -0.1210397,-0.0489 l -1.6782732,1.7445 z"
         style="fill:#cccccc;stroke:none;stroke-width:0.264583px;stroke-linecap:butt;stroke-linejoin:miter;stroke-opacity:1" />
      <path
         inkscape:connector-curvature="0"
         style="fill:#999999;stroke:none;stroke-width:0.264583px;stroke-linecap:butt;stroke-linejoin:miter;stroke-opacity:1"
         d="m 5.1292291,295.70813 c 0.00207,0.002 0.0012,0.006 0.00328,0.008 0.1307743,0.12671 0.3189673,0.18034 0.5122181,0.20499 l 2.4490263,0.0308 c 0.2286318,-0.007 0.4378859,-0.0901 0.5882037,-0.2357 0.015343,-0.0149 0.010451,-0.0423 0.024601,-0.0583 l -1.8367706,-1.73368 z"
         id="path5867-8-6-4-4" />
      <path
         inkscape:connector-curvature="0"
         style="fill:#cccccc;stroke:none;stroke-width:0.264583px;stroke-linecap:butt;stroke-linejoin:miter;stroke-opacity:1"
         d="m 5.1604419,292.19208 c -7.991e-4,7.9e-4 -0.00241,2.8e-4 -0.00321,0.001 -0.1274707,0.12865 -0.1810773,0.31391 -0.2061329,0.50394 l -0.029371,2.48259 c 0.00799,0.22335 0.089786,0.42856 0.235504,0.57564 0.011584,0.0117 0.03315,0.008 0.045392,0.0189 l 1.6517328,-1.84225 z"
         id="path5861-6-3-5-4" />
      <rect
         style="fill:#f2f2f2;stroke:none;stroke-width:0.185208;stroke-miterlimit:4;stroke-dasharray:none"
         id="rect5871-6-1-1-7"
         width="2.8928781"
         height="2.8073785"
         x="5.4612589"
         y="292.47412"
         ry="0.58901399" />
      <path
         id="path5853-6-6-8-0"
         d="m 5.7794579,291.95471 h 2.2728727 c 0.46759,0 0.8440254,0.37643 0.8440254,0.84401 v 2.33472 c 0,0.46757 -0.3764354,0.84401 -0.8440254,0.84401 H 5.7794579 c -0.46759,0 -0.8440253,-0.37644 -0.8440253,-0.84401 v -2.33472 c 0,-0.46758 0.3764353,-0.84401 0.8440253,-0.84401 z"
         style="fill:none;fill-opacity:0.584541;stroke:#000000;stroke-width:0.15875;stroke-miterlimit:4;stroke-dasharray:none"
         inkscape:connector-curvature="0" />
    </g>
    <circle
       cy="294.79803"
       cx="6.9978046"
       id="circle4248-9-1-3-8"
       style="fill:#1a1a1a;fill-opacity:1;stroke:none;stroke-width:0.437765;stroke-linecap:butt;stroke-linejoin:miter;stroke-miterlimit:4;stroke-dasharray:none;stroke-opacity:1;paint-order:normal"
       r="1.2986628" />
    <text
       xml:space="preserve"
       style="font-style:normal;font-weight:normal;font-size:2.27585px;line-height:1.25;font-family:sans-serif;fill:#f2f2f2;fill-opacity:1;stroke:none;stroke-width:0.284479"
       x="5.6613655"
       y="313.09576"
       id="text3203-7-3"
       transform="scale(1.0589523,0.9443296)"><tspan
         sodipodi:role="line"
         id="tspan3201-8-5"
         style="font-size:2.27585px;fill:#f2f2f2;fill-opacity:1;stroke-width:0.284479"
         x="5.6613655"
         y="313.09576">лю</tspan></text>
  </g>
</svg>
